<svg width="30" height="30" viewBox="0 0 30 30" fill="none" xmlns="http://www.w3.org/2000/svg">
<circle cx="15" cy="15" r="15" fill="#714E92"/>
<path d="M11.25 15.875C11.25 16.4167 11.3594 16.9298 11.5781 17.4144C11.7969 17.899 12.1094 18.3233 12.5156 18.6875C12.5052 18.6354 12.5 18.5885 12.5 18.5469V18.4062C12.5 18.0729 12.5625 17.7604 12.6875 17.4688C12.8125 17.1771 12.9948 16.9115 13.2344 16.6719L15 14.9375L16.7656 16.6719C17.0052 16.9115 17.1875 17.1771 17.3125 17.4688C17.4375 17.7604 17.5 18.0729 17.5 18.4062V18.5469C17.5 18.5885 17.4948 18.6354 17.4844 18.6875C17.8906 18.3229 18.2031 17.8983 18.4219 17.4137C18.6406 16.9292 18.75 16.4163 18.75 15.875C18.75 15.3542 18.6535 14.8619 18.4606 14.3981C18.2677 13.9344 17.9892 13.5204 17.625 13.1562C17.4167 13.2917 17.1979 13.3933 16.9688 13.4612C16.7396 13.5292 16.5052 13.5629 16.2656 13.5625C15.6198 13.5625 15.0598 13.349 14.5856 12.9219C14.1115 12.4948 13.8381 11.9688 13.7656 11.3438C13.3594 11.6875 13 12.0444 12.6875 12.4144C12.375 12.7844 12.1119 13.1594 11.8981 13.5394C11.6848 13.9194 11.5235 14.3073 11.4144 14.7031C11.3052 15.099 11.2504 15.4896 11.25 15.875ZM15 16.6875L14.1094 17.5625C13.9948 17.6771 13.9062 17.8073 13.8437 17.9531C13.7812 18.099 13.75 18.25 13.75 18.4062C13.75 18.7396 13.8723 19.026 14.1169 19.2656C14.3615 19.5052 14.6558 19.625 15 19.625C15.3438 19.625 15.6379 19.5052 15.8825 19.2656C16.1271 19.026 16.2496 18.7396 16.25 18.4062C16.25 18.2396 16.2188 18.0858 16.1562 17.945C16.0938 17.8042 16.0052 17.6767 15.8906 17.5625L15 16.6875ZM15 9V11.0625C15 11.4167 15.1225 11.7135 15.3675 11.9531C15.6125 12.1927 15.9119 12.3125 16.2656 12.3125C16.4531 12.3125 16.6277 12.2733 16.7894 12.195C16.951 12.1167 17.0942 11.9996 17.2188 11.8438L17.5 11.5C18.2708 11.9375 18.8802 12.5469 19.3281 13.3281C19.776 14.1094 20 14.9583 20 15.875C20 17.2708 19.5156 18.4531 18.5469 19.4219C17.5781 20.3906 16.3958 20.875 15 20.875C13.6042 20.875 12.4219 20.3906 11.4531 19.4219C10.4844 18.4531 10 17.2708 10 15.875C10 14.5312 10.4504 13.2552 11.3513 12.0469C12.2521 10.8385 13.4683 9.82292 15 9Z" fill="white"/>
</svg>
