<svg width="31" height="31" viewBox="0 0 31 31" fill="none" xmlns="http://www.w3.org/2000/svg">
<circle cx="15.5" cy="15.5" r="15" fill="#714E92"/>
<path d="M11.1072 14.0735V19.9359C11.1072 20.0413 11.1461 20.1424 11.2153 20.2169C11.2845 20.2915 11.3783 20.3333 11.4762 20.3333H13.6905V16.955C13.6905 16.7969 13.7488 16.6452 13.8527 16.5334C13.9565 16.4216 14.0973 16.3588 14.2441 16.3588H16.0893C16.2361 16.3588 16.3769 16.4216 16.4808 16.5334C16.5846 16.6452 16.6429 16.7969 16.6429 16.955V20.3333H18.8572C18.9551 20.3333 19.0489 20.2915 19.1181 20.2169C19.1874 20.1424 19.2262 20.0413 19.2262 19.9359V14.0735" stroke="white" stroke-linecap="round" stroke-linejoin="round"/>
<path d="M20.3333 15.1665L15.4179 10.0989C15.3025 9.96777 15.0329 9.96628 14.9155 10.0989L10 15.1665M18.4881 13.2537V10.397H17.381V12.111" stroke="white" stroke-linecap="round" stroke-linejoin="round"/>
</svg>
