<svg width="20" height="27" viewBox="0 0 20 27" fill="none" xmlns="http://www.w3.org/2000/svg">
<path d="M15 9C15 7.75781 14.5117 6.69727 13.5352 5.81836C12.5586 4.93945 11.3802 4.5 10 4.5C8.61979 4.5 7.44141 4.93945 6.46484 5.81836C5.48828 6.69727 5 7.75781 5 9C5 10.2422 5.48828 11.3027 6.46484 12.1816C7.44141 13.0605 8.61979 13.5 10 13.5C11.3802 13.5 12.5586 13.0605 13.5352 12.1816C14.5117 11.3027 15 10.2422 15 9ZM20 9C20 10.2773 19.7852 11.3262 19.3555 12.1465L12.2461 25.752C12.0378 26.1387 11.7285 26.4434 11.3184 26.666C10.9082 26.8887 10.4687 27 10 27C9.53125 27 9.0918 26.8887 8.68164 26.666C8.27148 26.4434 7.96875 26.1387 7.77344 25.752L0.644531 12.1465C0.214844 11.3262 0 10.2773 0 9C0 6.51563 0.976562 4.39453 2.92969 2.63672C4.88281 0.878906 7.23958 0 10 0C12.7604 0 15.1172 0.878906 17.0703 2.63672C19.0234 4.39453 20 6.51563 20 9Z" fill="#DC3C3C"/>
</svg>
