<svg width="95" height="28" viewBox="0 0 95 28" fill="none" xmlns="http://www.w3.org/2000/svg">
<path d="M17.92 6.2454C10.4635 13.6027 2 26.9921 2 19.5826C2.20025 14.5441 5.66461 7.19382 17.92 19.2862C33.2393 34.4016 26.3306 -2.05328 17.92 6.2454Z" stroke="url(#paint0_linear_9_3)" stroke-width="3"/>
<path d="M42.824 20.696V8.024C42.824 6.272 43.736 5.72 45.128 5.72H49.928C54.224 5.72 58.16 7.592 58.16 14.36C58.16 19.832 55.112 23 49.856 23H45.128C43.736 23 42.824 22.448 42.824 20.696ZM46.76 8.888V19.832H50.072C53.216 19.832 54.224 17.024 54.224 14.36C54.224 10.952 52.928 8.888 50.048 8.888H46.76ZM69.1469 14.048L71.5469 16.856C71.8589 16.28 72.1709 15.56 72.4829 15.128C72.8189 14.672 73.2509 14.384 73.7309 14.384C74.4989 14.384 75.2909 14.984 75.2909 15.752C75.2909 16.592 74.3789 18.152 73.5149 18.968L74.9549 20.696C75.1709 20.96 75.2909 21.296 75.2909 21.656C75.2909 22.4 74.6189 23.168 73.4909 23.168C72.9389 23.168 72.6509 22.88 72.3149 22.496L71.2109 21.224C69.6509 22.736 67.8029 23.312 65.6429 23.312C61.8749 23.312 60.2669 20.84 60.2669 18.536C60.2669 15.968 61.9229 14.288 64.0349 13.256C63.1709 12.272 62.3789 11.264 62.3789 9.824C62.3789 7.064 64.6109 5.552 67.1789 5.552C70.9709 5.552 72.1469 7.928 72.1469 9.728C72.1469 11.624 70.8749 13.208 69.1469 14.048ZM69.2909 19.112L66.1469 15.392C64.7549 16.16 63.7709 17.024 63.7709 18.248C63.7709 19.616 64.6589 20.576 66.1229 20.576C67.6109 20.576 68.5709 19.76 69.2909 19.112ZM65.5469 9.536C65.5469 10.736 66.2669 11.336 67.1549 12.08C67.9469 11.6 69.1229 10.928 69.1229 9.584C69.1229 8.72 68.3549 8 67.3229 8C66.2909 8 65.5469 8.672 65.5469 9.536Z" fill="white"/>
<path d="M77.9334 20.696V8.024C77.9334 6.272 78.8454 5.72 80.2374 5.72H85.0374C89.3334 5.72 93.2694 7.592 93.2694 14.36C93.2694 19.832 90.2214 23 84.9654 23H80.2374C78.8454 23 77.9334 22.448 77.9334 20.696ZM81.8694 8.888V19.832H85.1814C88.3254 19.832 89.3334 17.024 89.3334 14.36C89.3334 10.952 88.0374 8.888 85.1574 8.888H81.8694Z" fill="#AE78E1"/>
<defs>
<linearGradient id="paint0_linear_9_3" x1="-3.5" y1="10" x2="33" y2="26" gradientUnits="userSpaceOnUse">
<stop stop-color="#E7F3FF"/>
<stop offset="1" stop-color="#AE78E1"/>
</linearGradient>
</defs>
</svg>
